/* XPM */
static char *_80ff8857f8841359a36de2a0fe60bf6[] = {
/* columns rows colors chars-per-pixel */
"24 24 166 2 ",
"   c #4F9B05",
".  c #4E9A06",
"X  c #4F9A06",
"o  c #4E9B06",
"O  c #4F9B06",
"+  c #4F9A07",
"@  c #4F9B07",
"#  c #4F9C07",
"$  c #509907",
"%  c #519B08",
"&  c #509B09",
"*  c #519C08",
"=  c #509D08",
"-  c #519D08",
";  c #509E08",
":  c #519E08",
">  c #519C0A",
",  c #539D0B",
"<  c #529C0C",
"1  c #539D0D",
"2  c #549E0D",
"3  c #559E0E",
"4  c #549F0E",
"5  c #54A00E",
"6  c #55A10E",
"7  c #57A110",
"8  c #56A111",
"9  c #57A111",
"0  c #57A012",
"q  c #58A112",
"w  c #58A013",
"e  c #58A312",
"r  c #5BA317",
"t  c #5BA414",
"y  c #5DAD12",
"u  c #5DA518",
"i  c #5FA719",
"p  c #60A81D",
"a  c #63B316",
"s  c #64B417",
"d  c #64B517",
"f  c #65B617",
"g  c #65B618",
"h  c #66B718",
"j  c #66B41B",
"k  c #67B819",
"l  c #68B91A",
"z  c #69BA1A",
"x  c #6ABB1B",
"c  c #6BBC1C",
"v  c #6BBD1C",
"b  c #6CBE1D",
"n  c #6DBF1D",
"m  c #69B025",
"M  c #70B52E",
"N  c #75B03D",
"B  c #7AB93F",
"V  c #6EC01E",
"C  c #6FC11F",
"Z  c #6FC21F",
"A  c #70C220",
"S  c #70C320",
"D  c #71C420",
"F  c #71C421",
"G  c #72C521",
"H  c #73C622",
"J  c #74C723",
"K  c #73C724",
"L  c #75C823",
"P  c #76CA25",
"I  c #7BCA2E",
"U  c #7CD229",
"Y  c #7FC33E",
"T  c #7BB444",
"R  c #7EBE40",
"E  c #7EB944",
"W  c #80CE33",
"Q  c #82CE39",
"!  c #84CF3A",
"~  c #81C83C",
"^  c #80D231",
"/  c #84D338",
"(  c #87D63B",
")  c #87D33D",
"_  c #86D03F",
"`  c #84BD4F",
"'  c #8FBF61",
"]  c #89D143",
"[  c #8AD443",
"{  c #8CD447",
"}  c #8FD64B",
"|  c #8DC559",
" . c #93CB5E",
".. c #98D959",
"X. c #99DA5B",
"o. c #9ADB5B",
"O. c #9BDC5B",
"+. c #9CDD5C",
"@. c #9CDD5D",
"#. c #9CDE5D",
"$. c #9DDF5D",
"%. c #9CE158",
"&. c #9EE05E",
"*. c #9FE05E",
"=. c #9FE15F",
"-. c #90C360",
";. c #93C761",
":. c #94C863",
">. c #95C963",
",. c #95CC60",
"<. c #96C964",
"1. c #96CB64",
"2. c #97CB65",
"3. c #98CC65",
"4. c #98CC66",
"5. c #98CD66",
"6. c #99D064",
"7. c #9DD467",
"8. c #9DD568",
"9. c #A2DB6C",
"0. c #A1E360",
"q. c #A5E06B",
"w. c #A6E26B",
"e. c #A6E26C",
"r. c #A7E36C",
"t. c #A8E46D",
"y. c #A9E66E",
"u. c #AAE76F",
"i. c #ABE76F",
"p. c #ABE86F",
"a. c #A9E271",
"s. c #AAE372",
"d. c #AAE174",
"f. c #ACE970",
"g. c #ADEA71",
"h. c #B4EA7F",
"j. c #B5ED7F",
"k. c #B4E782",
"l. c #B4EB80",
"z. c #B5EB81",
"x. c #B6EC81",
"c. c #B6ED81",
"v. c #B7ED82",
"b. c #B7EA85",
"n. c #BBEE88",
"m. c #BAEB8C",
"M. c #BDEF8D",
"N. c #BAE590",
"B. c #BDEA91",
"V. c #BFEB96",
"C. c #C2EA9A",
"Z. c #C3F096",
"A. c #C5F19B",
"S. c #C5EBA0",
"D. c #C8EEA2",
"F. c #C9EBA7",
"G. c #CBF2A5",
"H. c #CFF2AE",
"J. c #D2F2B2",
"K. c #D3F4B1",
"L. c #D4F4B4",
"P. c #D8F5BB",
"I. c #D9F6BE",
"U. c #DDF7C4",
"Y. c #E3F8CF",
"T. c None",
/* pixels */
"T.T.T.T.T.T.T.T.T.T.T.T.T.T.T.T.T.T.T.T.T.T.T.T.",
"T.T.T.T.T.T.T.T.T.T.T.T.T.T.T.T.T.T.T.T.T.T.T.T.",
"T.T.T.T.T.T.T.T.T.T.T.* * T.T.T.T.T.T.T.T.T.T.T.",
"T.T.T.T.T.T.T.T.T.T.T.i M * T.T.T.T.T.T.T.T.T.T.",
"T.T.T.T.T.T.T.T.T.T.i d.a.m * T.T.T.T.T.T.T.T.T.",
"T.T.T.T.T.T.T.T.T.t m.0.( 9.p # T.T.T.T.T.T.T.T.",
"T.T.T.T.T.T.T.T.t B.n.%.U / 8.r O T.T.T.T.T.T.T.",
"T.T.T.T.T.T.T.7 V.Z.g.*.^ P ~  .7 T.T.T.T.T.T.T.",
"T.T.T.T.T.T.7 C.G.j.g.&./ J n Y | 4 T.T.T.T.T.T.",
"T.T.T.T.T.5 S.K.M.j.p.&.) H n f R ` & T.T.T.T.T.",
"T.T.T.T.4 F.I.A.M.j.u.#.[ H v f y E T & T.T.T.T.",
"T.T.T.* N.Y.U.P.J.c.u.#.{ S x  .;.-.' N O T.T.T.",
"T.T.  % 4 4 4 5 J.c.u.+.[ S x 2.w < < * O O T.T.",
"T.T.T.T.T.T.T.# J.c.t.X._ n x 4.< T.T.T.T.T.T.T.",
"T.T.T.T.T.T.T.O J.x.u.X.Q n g 2.< T.T.T.T.T.T.T.",
"T.T.T.T.T.T.T.O J.x.r.X.I n g 2.< T.T.T.T.T.T.T.",
"T.T.T.T.T.T.T.# K.l.r...K v g 2.< T.T.T.T.T.T.T.",
"T.T.T.T.T.T.T.# K.k.q.} F v s :.< T.T.T.T.T.T.T.",
"T.T.T.T.T.T.T.# J.k.r.I F v a :.< T.T.T.T.T.T.T.",
"T.T.T.T.T.T.T.# H.b.*.P Z l g :.& T.T.T.T.T.T.T.",
"T.T.T.T.T.T.T.* k.D.d.9.8.3.3.B O T.T.T.T.T.T.T.",
"T.T.T.T.T.T.T.T.* 7 7 7 7 t 4 O O T.T.T.T.T.T.T.",
"T.T.T.T.T.T.T.T.T.T.T.T.T.T.T.T.T.T.T.T.T.T.T.T.",
"T.T.T.T.T.T.T.T.T.T.T.T.T.T.T.T.T.T.T.T.T.T.T.T."
};
