/* XPM */
static char *e252548643894898b829456b5a2387ce[] = {
/* columns rows colors chars-per-pixel */
"24 24 166 2 ",
"   c #4D9B06",
".  c #4E9A06",
"X  c #4E9B06",
"o  c #4F9A07",
"O  c #4F9C05",
"+  c #4F9C07",
"@  c #4E9A08",
"#  c #4F9B08",
"$  c #4F9D08",
"%  c #519C07",
"&  c #519D07",
"*  c #509B08",
"=  c #509B09",
"-  c #509C08",
";  c #509D08",
":  c #509C09",
">  c #529D08",
",  c #519E08",
"<  c #519E09",
"1  c #519C0A",
"2  c #529D0A",
"3  c #529D0B",
"4  c #529C0C",
"5  c #549E0E",
"6  c #559E0E",
"7  c #58A212",
"8  c #58A213",
"9  c #58A114",
"0  c #5AA214",
"q  c #5BA415",
"w  c #5CA616",
"e  c #5DAC12",
"r  c #5DA61A",
"t  c #5FA819",
"y  c #61AA1D",
"u  c #62AB1E",
"i  c #63B316",
"p  c #64B417",
"a  c #65B517",
"s  c #65B617",
"d  c #66B718",
"f  c #69B51F",
"g  c #67B819",
"h  c #68B91A",
"j  c #69BA1A",
"k  c #6ABB1B",
"l  c #6ABC1C",
"z  c #6BBD1C",
"x  c #6CBE1D",
"c  c #6CBF1D",
"v  c #6DBF1D",
"b  c #66AC21",
"n  c #6DB32B",
"m  c #76BA34",
"M  c #75B739",
"N  c #7BB73F",
"B  c #7ABC3C",
"V  c #6DC01E",
"C  c #6EC11F",
"Z  c #6FC21F",
"A  c #6FC220",
"S  c #70C320",
"D  c #71C421",
"F  c #71C521",
"G  c #72C622",
"H  c #73C723",
"J  c #73C624",
"K  c #74C823",
"L  c #76CA25",
"P  c #7ACA2E",
"I  c #7CD129",
"U  c #7FCE32",
"Y  c #7CC139",
"T  c #7EC738",
"R  c #77B140",
"E  c #7EB648",
"W  c #81CE37",
"Q  c #82CD39",
"!  c #80D231",
"~  c #85D637",
"^  c #84D338",
"/  c #86D03F",
"(  c #87D33E",
")  c #88BE53",
"_  c #8FBF61",
"`  c #89D143",
"'  c #8AD443",
"]  c #8CD446",
"[  c #8FD54A",
"{  c #8FC65B",
"}  c #98D959",
"|  c #99DA5B",
" . c #9ADB5B",
".. c #9BDC5B",
"X. c #9CDD5C",
"o. c #9CDE5D",
"O. c #9DDF5D",
"+. c #9CE259",
"@. c #9EE05E",
"#. c #9FE05E",
"$. c #9FE15F",
"%. c #9FE45E",
"&. c #94C762",
"*. c #94C565",
"=. c #94C863",
"-. c #95C963",
";. c #97CD62",
":. c #96C964",
">. c #96CB64",
",. c #97CB65",
"<. c #97C967",
"1. c #97CC64",
"2. c #98CC65",
"3. c #98CD66",
"4. c #9CD168",
"5. c #9ED468",
"6. c #A1D76D",
"7. c #A2DB6C",
"8. c #A5DC70",
"9. c #A5E06A",
"0. c #A6E26B",
"q. c #A6E26C",
"w. c #A7E36C",
"e. c #A8E46C",
"r. c #A8E46D",
"t. c #A9E56E",
"y. c #AAE76F",
"u. c #ABE76F",
"i. c #ABE86F",
"p. c #A8E171",
"a. c #ACE474",
"s. c #ACE970",
"d. c #ADE971",
"f. c #ACE278",
"g. c #ACE279",
"h. c #B3E97F",
"j. c #B4EA7F",
"k. c #B5ED7F",
"l. c #B4EB80",
"z. c #B5EB81",
"x. c #B6EC81",
"c. c #B6ED81",
"v. c #B7ED82",
"b. c #B9EE86",
"n. c #B8EA88",
"m. c #BDEF8D",
"M. c #BCE793",
"N. c #BEEC91",
"B. c #C0ED96",
"V. c #C4ED9C",
"C. c #C5EE9F",
"Z. c #C1F094",
"A. c #C5F19B",
"S. c #C7EDA2",
"D. c #CAEDA7",
"F. c #CEEEAE",
"G. c #CAF2A2",
"H. c #CFF2AE",
"J. c #D1F4AF",
"K. c #D2F2B2",
"L. c #D6F5B7",
"P. c #D7F5B9",
"I. c #D9F6BC",
"U. c #DCF6C1",
"Y. c #E0F8C9",
"T. c None",
/* pixels */
"T.T.T.T.T.T.T.T.T.T.T.T.T.T.T.T.T.T.T.T.T.T.T.T.",
"T.T.T.T.T.T.T.T.T.T.T.T.T.T.T.T.T.T.T.T.T.T.T.T.",
"T.T.T.T.T.T.T.T.$ * , 4 , 4 , @ T.T.T.T.T.T.T.T.",
"T.T.T.T.T.T.T., f.C.f.8.6.4.,.M . T.T.T.T.T.T.T.",
"T.T.T.T.T.T.T.+ H.n...L S j f &., T.T.T.T.T.T.T.",
"T.T.T.T.T.T.T.+ K.l.9.U S k i =.4 T.T.T.T.T.T.T.",
"T.T.T.T.T.T.T.+ K.h.q.[ D k p ,.4 T.T.T.T.T.T.T.",
"T.T.T.T.T.T.T.+ K.l.q.} J z a &.4 T.T.T.T.T.T.T.",
"T.T.T.T.T.T.T.+ K.l.e.} P v a ,.4 T.T.T.T.T.T.T.",
"T.T.T.T.T.T.T.+ K.l.t.} Q C g ,.4 T.T.T.T.T.T.T.",
"T.T.T.T.T.T.T.+ K.v.t.../ A j ,.4 T.T.T.T.T.T.T.",
"T.T.. . . . . . K.v.t.X.` A j 3.5 . . . . . T.T.",
"T.T.T., M.Y.U.P.L.c.i...] S k ,.3.=._ R . T.T.T.",
"T.T.T.T.7 F.I.A.m.c.i.@.' D k p e R ) . T.T.T.T.",
"T.T.T.T.T.0 D.J.m.k.i.@.( D C s B ) , T.T.T.T.T.",
"T.T.T.T.T.T.8 S.G.k.s.@.~ D C Y { 5 T.T.T.T.T.T.",
"T.T.T.T.T.T.T.q C.Z.s.$.! K T ;.0 $ T.T.T.T.T.T.",
"T.T.T.T.T.T.T.T.q B.b.+.I W 5.r + T.T.T.T.T.T.T.",
"T.T.T.T.T.T.T.T.T.t N.%.~ 7.b @ T.T.T.T.T.T.T.T.",
"T.T.T.T.T.T.T.T.T.T.u a.p.n % T.T.T.T.T.T.T.T.T.",
"T.T.T.T.T.T.T.T.T.T.@ u m , T.T.T.T.T.T.T.T.T.T.",
"T.T.T.T.T.T.T.T.T.T.T., , T.T.T.T.T.T.T.T.T.T.T.",
"T.T.T.T.T.T.T.T.T.T.T.T.T.T.T.T.T.T.T.T.T.T.T.T.",
"T.T.T.T.T.T.T.T.T.T.T.T.T.T.T.T.T.T.T.T.T.T.T.T."
};
