/* XPM */
static char *_94331b278814e4a8ee9590f60bf5f97[] = {
/* columns rows colors chars-per-pixel */
"32 19 19 1 ",
"  c #F34135",
". c #F44235",
"X c #F44336",
"o c #F44438",
"O c #F4483C",
"+ c #F45145",
"@ c #F5574B",
"# c #F56156",
"$ c #F77C73",
"% c #F99E97",
"& c #FAAFA9",
"* c #FBBDB8",
"= c #FBC0BB",
"- c #FCCFCC",
"; c #FCDCDA",
": c #FEF0EF",
"> c #FEFEFE",
", c gray100",
"< c None",
/* pixels */
"<<<<<..XXXXXXXXXXXXXXXXXX..<<<<<",
"<<<<..XXXXXXXXXXXXXXXXXXXXX <<<<",
"<<<<.XXXXXXXXXXXXXXXXXXXXXX.<<<<",
"<<<<XXXXXXXXX+X.XXXXXXXXXXXX<<<<",
"<<<<XXXXXXXXX*%oXXXXXXXXXXXX<<<<",
"<<<<XXXXXXXXX=,-@XXXXXXXXXXX<<<<",
"<<<<XXXXXXXXX=,,:$XXXXXXXXXX<<<<",
"<<<<XXXXXXXXX=,,,,&OXXXXXXXX<<<<",
"<<<<XXXXXXXXX=,,,,,;#XXXXXXX<<<<",
"<<<<XXXXXXXX.=,,,,,;#XXXXXXX<<<<",
"<<<<XXXXXXXXX=,,,,&OXXXXXXXX<<<<",
"<<<<XXXXXXXXX=,,:$  XXXXXXXX<<<<",
"<<<<XXXXXXXXX=,-@XXXXXXXXXXX<<<<",
"<<<<XXXXXXXXX*%oXXXXXXXXXXXX<<<<",
"<<<<XXXXXXXXX+XXXXXXXXXXXXXX<<<<",
"<<<<XXXXXXXXXXXXXXXXXXXXXXXX<<<<",
"<<<<.XXXXXXXXXXXXXXXXXXXXXX.<<<<",
"<<<<.XXXXXXXXXXXXXXXXXXXXXX <<<<",
"<<<<< .XXXXXXXXXXXXXXXXXX. <<<<<"
};
